<mxfile modified="2019-10-29T12:37:14.165Z" host="www.draw.io" agent="Mozilla/5.0 (Windows NT 10.0; Win64; x64) AppleWebKit/537.36 (KHTML, like Gecko) Chrome/78.0.3904.70 Safari/537.36" etag="nTjGCY1eaVRh0ECoUSys" version="12.1.8" type="github" pages="1">
  <diagram name="Page-1" id="9361dd3d-8414-5efd-6122-117bd74ce7a7">
    <mxGraphModel dx="1876" dy="1109" grid="1" gridSize="10" guides="1" tooltips="1" connect="1" arrows="1" fold="1" page="0" pageScale="1.5" pageWidth="826" pageHeight="1169" background="#ffffff" math="0" shadow="0">
      <root>
        <mxCell id="0"/>
        <mxCell id="1" parent="0"/>
        <mxCell id="2" value="" style="fillColor=#CC4125;strokeColor=#660000" parent="1" vertex="1">
          <mxGeometry x="30" y="150" width="10" height="180" as="geometry"/>
        </mxCell>
        <mxCell id="7" value="Staff Schedule Service" style="shadow=1;fillColor=#A2C4C9;strokeColor=none;whiteSpace=wrap;fontStyle=1" parent="1" vertex="1">
          <mxGeometry x="530.5" y="60" width="135" height="50" as="geometry"/>
        </mxCell>
        <mxCell id="9" value="" style="edgeStyle=none;verticalLabelPosition=top;verticalAlign=bottom;entryX=0.138;entryY=0.387;entryDx=0;entryDy=0;exitX=1;exitY=0.5;exitDx=0;exitDy=0;entryPerimeter=0;dashed=1;endFill=1;endArrow=block;startFill=0;startArrow=none;" parent="1" source="2" target="4HXD_U9j3b60p4fibFge-90" edge="1">
          <mxGeometry x="-150" y="4" width="100" height="100" as="geometry">
            <mxPoint x="60" y="243.5" as="sourcePoint"/>
            <mxPoint x="241.5999999999999" y="245.159" as="targetPoint"/>
            <mxPoint x="-31" y="1" as="offset"/>
          </mxGeometry>
        </mxCell>
        <mxCell id="11" value="" style="edgeStyle=none;verticalLabelPosition=top;verticalAlign=bottom;endArrow=none;startArrow=classic;dashed=1;entryX=0;entryY=0.75;entryDx=0;entryDy=0;" parent="1" target="4HXD_U9j3b60p4fibFge-90" edge="1">
          <mxGeometry x="120" y="172.25887345679013" width="100" height="100" as="geometry">
            <mxPoint x="42" y="262" as="sourcePoint"/>
            <mxPoint x="286.76" y="260.398" as="targetPoint"/>
          </mxGeometry>
        </mxCell>
        <mxCell id="16" value="" style="edgeStyle=none;endArrow=none;dashed=1;" parent="1" source="4HXD_U9j3b60p4fibFge-112" edge="1">
          <mxGeometry x="807.042824074074" y="270" width="100" height="100" as="geometry">
            <mxPoint x="884.542824074074" y="219.99999999999997" as="sourcePoint"/>
            <mxPoint x="885" y="810" as="targetPoint"/>
          </mxGeometry>
        </mxCell>
        <mxCell id="17" value="" style="fillColor=#CC4125;strokeColor=#660000" parent="1" vertex="1">
          <mxGeometry x="880" y="370" width="10" height="120" as="geometry"/>
        </mxCell>
        <mxCell id="30" value="Feedback Service" style="shadow=1;fillColor=#A2C4C9;strokeColor=none;whiteSpace=wrap;fontStyle=1" parent="1" vertex="1">
          <mxGeometry x="250" y="60" width="138" height="50" as="geometry"/>
        </mxCell>
        <mxCell id="33" value="" style="edgeStyle=elbowEdgeStyle;elbow=horizontal;endArrow=none;dashed=1;exitX=0.5;exitY=1;exitDx=0;exitDy=0;exitPerimeter=0;" parent="1" source="6s1CrjZ-BPWiknnFi2Cr-71" target="2" edge="1">
          <mxGeometry x="60.00000000000003" y="310" width="100" height="100" as="geometry">
            <mxPoint x="60.00000000000003" y="410" as="sourcePoint"/>
            <mxPoint x="160" y="310" as="targetPoint"/>
          </mxGeometry>
        </mxCell>
        <mxCell id="jYBo3Zhqs0pMkhHqMW5u-86" value="" style="edgeStyle=orthogonalEdgeStyle;rounded=1;orthogonalLoop=1;jettySize=auto;html=1;entryX=1.175;entryY=0.71;entryDx=0;entryDy=0;entryPerimeter=0;dashed=1;verticalAlign=bottom;endFill=1;endArrow=block;startFill=0;startArrow=none;" parent="1" target="jYBo3Zhqs0pMkhHqMW5u-84" edge="1">
          <mxGeometry x="0.0606" y="-19" relative="1" as="geometry">
            <mxPoint x="27" y="349" as="sourcePoint"/>
            <mxPoint as="offset"/>
          </mxGeometry>
        </mxCell>
        <mxCell id="jYBo3Zhqs0pMkhHqMW5u-87" value="" style="text;html=1;resizable=0;points=[];align=center;verticalAlign=bottom;labelBackgroundColor=#ffffff;rounded=1;dashed=1;fontSize=11;strokeColor=#000000;endFill=1;endArrow=block;startFill=0;startArrow=none;" parent="jYBo3Zhqs0pMkhHqMW5u-86" vertex="1" connectable="0">
          <mxGeometry x="0.1502" y="-4" relative="1" as="geometry">
            <mxPoint x="6.5" y="25" as="offset"/>
          </mxGeometry>
        </mxCell>
        <mxCell id="xaEXVbpPQqgU4EdOG0RL-72" style="edgeStyle=elbowEdgeStyle;orthogonalLoop=1;jettySize=auto;elbow=vertical;html=1;dashed=1;startFill=0;endArrow=block;endFill=1;" parent="1" source="42" edge="1">
          <mxGeometry relative="1" as="geometry">
            <mxPoint x="310" y="420" as="targetPoint"/>
          </mxGeometry>
        </mxCell>
        <mxCell id="xaEXVbpPQqgU4EdOG0RL-135" style="edgeStyle=elbowEdgeStyle;orthogonalLoop=1;jettySize=auto;elbow=vertical;html=1;dashed=1;startFill=0;endArrow=block;endFill=1;entryX=1.217;entryY=0.313;entryDx=0;entryDy=0;entryPerimeter=0;" parent="1" source="42" target="xaEXVbpPQqgU4EdOG0RL-137" edge="1">
          <mxGeometry relative="1" as="geometry">
            <mxPoint x="-119.99999999999977" y="495" as="targetPoint"/>
            <Array as="points"/>
          </mxGeometry>
        </mxCell>
        <mxCell id="xaEXVbpPQqgU4EdOG0RL-161" style="edgeStyle=elbowEdgeStyle;orthogonalLoop=1;jettySize=auto;elbow=vertical;html=1;entryX=1.3;entryY=0.638;entryDx=0;entryDy=0;dashed=1;startFill=0;endArrow=block;endFill=1;entryPerimeter=0;" parent="1" source="42" target="xaEXVbpPQqgU4EdOG0RL-137" edge="1">
          <mxGeometry relative="1" as="geometry">
            <Array as="points">
              <mxPoint x="-80" y="600"/>
            </Array>
          </mxGeometry>
        </mxCell>
        <mxCell id="xaEXVbpPQqgU4EdOG0RL-165" style="edgeStyle=elbowEdgeStyle;orthogonalLoop=1;jettySize=auto;elbow=vertical;html=1;entryX=0;entryY=0.75;entryDx=0;entryDy=0;dashed=1;startFill=0;endArrow=block;endFill=1;" parent="1" source="42" target="xaEXVbpPQqgU4EdOG0RL-132" edge="1">
          <mxGeometry relative="1" as="geometry"/>
        </mxCell>
        <mxCell id="42" value="" style="fillColor=#CC4125;strokeColor=#660000" parent="1" vertex="1">
          <mxGeometry x="30" y="340" width="10" height="380" as="geometry"/>
        </mxCell>
        <mxCell id="44" value="" style="edgeStyle=none;dashed=1;endArrow=none" parent="1" source="2" target="42" edge="1">
          <mxGeometry x="-120" y="300" width="100" height="100" as="geometry">
            <mxPoint x="-120" y="400" as="sourcePoint"/>
            <mxPoint x="-20" y="300" as="targetPoint"/>
          </mxGeometry>
        </mxCell>
        <mxCell id="49" value="" style="fillColor=#CC4125;strokeColor=#660000" parent="1" vertex="1">
          <mxGeometry x="310" y="468" width="10" height="112" as="geometry"/>
        </mxCell>
        <mxCell id="50" value="" style="edgeStyle=none;endArrow=none;dashed=1" parent="1" source="4HXD_U9j3b60p4fibFge-125" target="49" edge="1">
          <mxGeometry x="266.5711805555559" y="205" width="100" height="100" as="geometry">
            <mxPoint x="341.7361111111113" y="150" as="sourcePoint"/>
            <mxPoint x="341.7361111111113" y="329.3942901234568" as="targetPoint"/>
          </mxGeometry>
        </mxCell>
        <mxCell id="71" value="121 - PA Feedback Loop Sequence Diagram" style="rounded=1;fontStyle=1;fillColor=#FFD966;strokeColor=none;fontSize=16;" parent="1" vertex="1">
          <mxGeometry x="-147" y="-20" width="348" height="30" as="geometry"/>
        </mxCell>
        <mxCell id="4HXD_U9j3b60p4fibFge-92" style="edgeStyle=orthogonalEdgeStyle;rounded=1;orthogonalLoop=1;jettySize=auto;html=1;dashed=1;verticalAlign=bottom;endFill=1;endArrow=block;startFill=0;startArrow=none;exitX=1.01;exitY=0.803;exitDx=0;exitDy=0;exitPerimeter=0;entryX=-0.205;entryY=0.864;entryDx=0;entryDy=0;entryPerimeter=0;" parent="1" source="4HXD_U9j3b60p4fibFge-109" target="xaEXVbpPQqgU4EdOG0RL-106" edge="1">
          <mxGeometry relative="1" as="geometry">
            <mxPoint x="640" y="270" as="sourcePoint"/>
            <mxPoint x="797" y="270" as="targetPoint"/>
            <Array as="points">
              <mxPoint x="970" y="272"/>
              <mxPoint x="970" y="271"/>
            </Array>
          </mxGeometry>
        </mxCell>
        <mxCell id="4HXD_U9j3b60p4fibFge-93" value="" style="text;html=1;resizable=0;points=[];align=center;verticalAlign=bottom;labelBackgroundColor=#ffffff;rounded=1;dashed=1;fontSize=11;strokeColor=#000000;endFill=1;endArrow=block;startFill=0;startArrow=none;" parent="4HXD_U9j3b60p4fibFge-92" vertex="1" connectable="0">
          <mxGeometry x="-0.0025" y="10" relative="1" as="geometry">
            <mxPoint x="-159.5" y="28" as="offset"/>
          </mxGeometry>
        </mxCell>
        <mxCell id="HILvpN4AN2ozblUCMKvK-93" value="" style="edgeStyle=none;endArrow=none;dashed=1;exitX=0.5;exitY=1;exitDx=0;exitDy=0;" parent="1" source="4HXD_U9j3b60p4fibFge-109" edge="1">
          <mxGeometry x="626.5711805555559" y="339.6971450617284" width="100" height="100" as="geometry">
            <mxPoint x="598" y="270" as="sourcePoint"/>
            <mxPoint x="598" y="310" as="targetPoint"/>
          </mxGeometry>
        </mxCell>
        <mxCell id="4HXD_U9j3b60p4fibFge-90" value="" style="fillColor=#CC4125;strokeColor=#660000" parent="1" vertex="1">
          <mxGeometry x="310" y="216" width="10" height="61" as="geometry"/>
        </mxCell>
        <mxCell id="4HXD_U9j3b60p4fibFge-91" value="" style="edgeStyle=none;endArrow=none;dashed=1" parent="1" source="30" target="4HXD_U9j3b60p4fibFge-90" edge="1">
          <mxGeometry x="266.5711805555559" y="205" width="100" height="100" as="geometry">
            <mxPoint x="315" y="110" as="sourcePoint"/>
            <mxPoint x="315" y="468.33333333333326" as="targetPoint"/>
          </mxGeometry>
        </mxCell>
        <mxCell id="4HXD_U9j3b60p4fibFge-109" value="" style="fillColor=#CC4125;strokeColor=#660000" parent="1" vertex="1">
          <mxGeometry x="593" y="158" width="10" height="142" as="geometry"/>
        </mxCell>
        <mxCell id="4HXD_U9j3b60p4fibFge-110" value="" style="edgeStyle=none;endArrow=none;dashed=1;exitX=0.5;exitY=1;exitDx=0;exitDy=0;" parent="1" source="7" target="4HXD_U9j3b60p4fibFge-109" edge="1">
          <mxGeometry x="626.5711805555559" y="339.6971450617284" width="100" height="100" as="geometry">
            <mxPoint x="597.5" y="110" as="sourcePoint"/>
            <mxPoint x="597.8810444874275" y="307" as="targetPoint"/>
          </mxGeometry>
        </mxCell>
        <mxCell id="4HXD_U9j3b60p4fibFge-112" value="" style="fillColor=#CC4125;strokeColor=#660000" parent="1" vertex="1">
          <mxGeometry x="880" y="148" width="10" height="80" as="geometry"/>
        </mxCell>
        <mxCell id="4HXD_U9j3b60p4fibFge-113" value="" style="edgeStyle=none;endArrow=none;dashed=1;" parent="1" target="4HXD_U9j3b60p4fibFge-112" edge="1">
          <mxGeometry x="807.042824074074" y="270" width="100" height="100" as="geometry">
            <mxPoint x="884.8363897878462" y="110" as="sourcePoint"/>
            <mxPoint x="884.9647266313932" y="290" as="targetPoint"/>
          </mxGeometry>
        </mxCell>
        <mxCell id="4HXD_U9j3b60p4fibFge-121" value="prioritize tickets" style="rounded=1;fontStyle=1;fillColor=#FFD966;strokeColor=none;whiteSpace=wrap;fontSize=10;" parent="1" vertex="1">
          <mxGeometry x="1100" y="204" width="87.5" height="30" as="geometry"/>
        </mxCell>
        <mxCell id="xaEXVbpPQqgU4EdOG0RL-100" style="edgeStyle=elbowEdgeStyle;orthogonalLoop=1;jettySize=auto;elbow=vertical;html=1;dashed=1;startFill=0;endArrow=block;endFill=1;entryX=-0.283;entryY=0.586;entryDx=0;entryDy=0;entryPerimeter=0;" parent="1" source="4HXD_U9j3b60p4fibFge-125" target="17" edge="1">
          <mxGeometry relative="1" as="geometry">
            <mxPoint x="850" y="440" as="targetPoint"/>
          </mxGeometry>
        </mxCell>
        <mxCell id="4HXD_U9j3b60p4fibFge-125" value="" style="fillColor=#CC4125;strokeColor=#660000" parent="1" vertex="1">
          <mxGeometry x="310" y="342" width="10" height="108" as="geometry"/>
        </mxCell>
        <mxCell id="4HXD_U9j3b60p4fibFge-126" value="" style="edgeStyle=none;endArrow=none;dashed=1" parent="1" source="4HXD_U9j3b60p4fibFge-90" target="4HXD_U9j3b60p4fibFge-125" edge="1">
          <mxGeometry x="266.5711805555559" y="205" width="100" height="100" as="geometry">
            <mxPoint x="315.0000000000002" y="280.0000000000001" as="sourcePoint"/>
            <mxPoint x="315.0000000000002" y="468" as="targetPoint"/>
          </mxGeometry>
        </mxCell>
        <mxCell id="jYBo3Zhqs0pMkhHqMW5u-81" value="" style="edgeStyle=none;verticalLabelPosition=top;verticalAlign=bottom;labelPosition=left;align=center;exitX=1.268;exitY=0.538;exitDx=0;exitDy=0;exitPerimeter=0;dashed=1;endFill=1;endArrow=block;startFill=0;startArrow=none;" parent="1" source="jYBo3Zhqs0pMkhHqMW5u-84" edge="1">
          <mxGeometry width="100" height="100" as="geometry">
            <mxPoint x="-60" y="299.5" as="sourcePoint"/>
            <mxPoint x="30" y="299.5" as="targetPoint"/>
            <mxPoint x="14" y="20" as="offset"/>
          </mxGeometry>
        </mxCell>
        <mxCell id="3" value="" style="edgeStyle=none;verticalLabelPosition=top;verticalAlign=bottom;labelPosition=left;align=center;exitX=1;exitY=0.25;exitDx=0;exitDy=0;dashed=1;endFill=1;endArrow=block;startFill=0;startArrow=none;" parent="1" source="jYBo3Zhqs0pMkhHqMW5u-84" edge="1">
          <mxGeometry width="100" height="100" as="geometry">
            <mxPoint x="-60" y="219.5" as="sourcePoint"/>
            <mxPoint x="30" y="219.5" as="targetPoint"/>
            <mxPoint x="5" y="20" as="offset"/>
          </mxGeometry>
        </mxCell>
        <mxCell id="jYBo3Zhqs0pMkhHqMW5u-89" value="" style="edgeStyle=none;verticalLabelPosition=top;verticalAlign=bottom;labelPosition=left;align=center;exitX=1.096;exitY=0.895;exitDx=0;exitDy=0;exitPerimeter=0;dashed=1;endFill=1;endArrow=block;startFill=0;startArrow=none;" parent="1" source="jYBo3Zhqs0pMkhHqMW5u-84" edge="1">
          <mxGeometry width="100" height="100" as="geometry">
            <mxPoint x="-107.31999999999994" y="400.6399999999999" as="sourcePoint"/>
            <mxPoint x="30" y="400" as="targetPoint"/>
            <mxPoint x="-5" y="20" as="offset"/>
          </mxGeometry>
        </mxCell>
        <mxCell id="xaEXVbpPQqgU4EdOG0RL-86" value="" style="group" parent="1" vertex="1" connectable="0">
          <mxGeometry x="740" y="60" width="30" height="520" as="geometry"/>
        </mxCell>
        <mxCell id="xaEXVbpPQqgU4EdOG0RL-87" value="" style="edgeStyle=none;endArrow=none;dashed=1" parent="xaEXVbpPQqgU4EdOG0RL-86" target="xaEXVbpPQqgU4EdOG0RL-90" edge="1">
          <mxGeometry x="-35.428819444444116" y="145" width="100" height="100" as="geometry">
            <mxPoint x="16.37304075235079" y="50" as="sourcePoint"/>
            <mxPoint x="14" y="520" as="targetPoint"/>
          </mxGeometry>
        </mxCell>
        <mxCell id="xaEXVbpPQqgU4EdOG0RL-88" value="" style="group" parent="xaEXVbpPQqgU4EdOG0RL-86" vertex="1" connectable="0">
          <mxGeometry width="30" height="520" as="geometry"/>
        </mxCell>
        <mxCell id="xaEXVbpPQqgU4EdOG0RL-89" value="" style="edgeStyle=none;endArrow=none;dashed=1" parent="xaEXVbpPQqgU4EdOG0RL-88" source="xaEXVbpPQqgU4EdOG0RL-90" edge="1">
          <mxGeometry x="-35.428819444444116" y="145" width="100" height="100" as="geometry">
            <mxPoint x="16.373040752351017" y="50" as="sourcePoint"/>
            <mxPoint x="14" y="520" as="targetPoint"/>
          </mxGeometry>
        </mxCell>
        <mxCell id="xaEXVbpPQqgU4EdOG0RL-90" value="" style="fillColor=#CC4125;strokeColor=#660000" parent="xaEXVbpPQqgU4EdOG0RL-88" vertex="1">
          <mxGeometry x="10" y="90" width="10" height="280" as="geometry"/>
        </mxCell>
        <mxCell id="xaEXVbpPQqgU4EdOG0RL-91" value="HO" style="shape=umlActor;verticalLabelPosition=bottom;labelBackgroundColor=none;verticalAlign=top;html=1;outlineConnect=0;fillColor=#FFD966;fontStyle=1" parent="xaEXVbpPQqgU4EdOG0RL-88" vertex="1">
          <mxGeometry width="30" height="60" as="geometry"/>
        </mxCell>
        <mxCell id="xaEXVbpPQqgU4EdOG0RL-103" value="Ticket Processing Service" style="shadow=1;fillColor=#A2C4C9;strokeColor=none;whiteSpace=wrap;fontStyle=1" parent="1" vertex="1">
          <mxGeometry x="1006" y="60" width="153" height="50" as="geometry"/>
        </mxCell>
        <mxCell id="xaEXVbpPQqgU4EdOG0RL-104" value="" style="edgeStyle=none;endArrow=none;dashed=1;" parent="1" source="xaEXVbpPQqgU4EdOG0RL-106" edge="1">
          <mxGeometry x="1004.542824074074" y="270" width="100" height="100" as="geometry">
            <mxPoint x="1082.042824074074" y="219.99999999999997" as="sourcePoint"/>
            <mxPoint x="1083" y="650" as="targetPoint"/>
          </mxGeometry>
        </mxCell>
        <mxCell id="xaEXVbpPQqgU4EdOG0RL-115" style="edgeStyle=elbowEdgeStyle;orthogonalLoop=1;jettySize=auto;elbow=vertical;html=1;dashed=1;startFill=0;endArrow=block;endFill=1;fontSize=11;entryX=1.133;entryY=0.641;entryDx=0;entryDy=0;entryPerimeter=0;" parent="1" source="xaEXVbpPQqgU4EdOG0RL-105" target="xaEXVbpPQqgU4EdOG0RL-96" edge="1">
          <mxGeometry relative="1" as="geometry">
            <mxPoint x="760" y="330" as="targetPoint"/>
          </mxGeometry>
        </mxCell>
        <mxCell id="xaEXVbpPQqgU4EdOG0RL-105" value="" style="fillColor=#CC4125;strokeColor=#660000" parent="1" vertex="1">
          <mxGeometry x="1078" y="320" width="10" height="140" as="geometry"/>
        </mxCell>
        <mxCell id="xaEXVbpPQqgU4EdOG0RL-110" style="edgeStyle=elbowEdgeStyle;orthogonalLoop=1;jettySize=auto;elbow=vertical;html=1;entryX=1;entryY=0.5;entryDx=0;entryDy=0;dashed=1;startFill=0;endArrow=block;endFill=1;fontSize=16;" parent="1" source="xaEXVbpPQqgU4EdOG0RL-106" target="4HXD_U9j3b60p4fibFge-112" edge="1">
          <mxGeometry relative="1" as="geometry"/>
        </mxCell>
        <mxCell id="xaEXVbpPQqgU4EdOG0RL-111" value="" style="text;html=1;resizable=0;points=[];align=center;verticalAlign=bottom;labelBackgroundColor=#ffffff;fontSize=11;rounded=1;dashed=1;strokeColor=#000000;endFill=1;endArrow=block;startFill=0;startArrow=none;" parent="xaEXVbpPQqgU4EdOG0RL-110" vertex="1" connectable="0">
          <mxGeometry x="0.2651" y="1" relative="1" as="geometry">
            <mxPoint as="offset"/>
          </mxGeometry>
        </mxCell>
        <mxCell id="xaEXVbpPQqgU4EdOG0RL-112" style="edgeStyle=elbowEdgeStyle;orthogonalLoop=1;jettySize=auto;elbow=vertical;html=1;entryX=0.917;entryY=0.556;entryDx=0;entryDy=0;entryPerimeter=0;dashed=1;startFill=0;endArrow=block;endFill=1;fontSize=16;" parent="1" source="xaEXVbpPQqgU4EdOG0RL-106" target="4HXD_U9j3b60p4fibFge-109" edge="1">
          <mxGeometry relative="1" as="geometry"/>
        </mxCell>
        <mxCell id="xaEXVbpPQqgU4EdOG0RL-113" value="" style="text;html=1;resizable=0;points=[];align=center;verticalAlign=bottom;labelBackgroundColor=#ffffff;fontSize=11;rounded=1;dashed=1;strokeColor=#000000;endFill=1;endArrow=block;startFill=0;startArrow=none;" parent="xaEXVbpPQqgU4EdOG0RL-112" vertex="1" connectable="0">
          <mxGeometry y="116" relative="1" as="geometry">
            <mxPoint x="120.5" y="-93" as="offset"/>
          </mxGeometry>
        </mxCell>
        <mxCell id="xaEXVbpPQqgU4EdOG0RL-106" value="" style="fillColor=#CC4125;strokeColor=#660000" parent="1" vertex="1">
          <mxGeometry x="1078" y="148" width="10" height="142" as="geometry"/>
        </mxCell>
        <mxCell id="xaEXVbpPQqgU4EdOG0RL-107" value="" style="edgeStyle=none;endArrow=none;dashed=1;" parent="1" source="xaEXVbpPQqgU4EdOG0RL-103" target="xaEXVbpPQqgU4EdOG0RL-106" edge="1">
          <mxGeometry x="1004.542824074074" y="270" width="100" height="100" as="geometry">
            <mxPoint x="1082.305996472663" y="110" as="sourcePoint"/>
            <mxPoint x="1082.4647266313932" y="290" as="targetPoint"/>
          </mxGeometry>
        </mxCell>
        <mxCell id="xaEXVbpPQqgU4EdOG0RL-108" value="Feedback DB" style="shape=datastore;whiteSpace=wrap;html=1;labelBackgroundColor=none;fillColor=#FFD966;strokeColor=#FFFFFF;fontStyle=1" parent="1" vertex="1">
          <mxGeometry x="849" y="54" width="75" height="65" as="geometry"/>
        </mxCell>
        <mxCell id="xaEXVbpPQqgU4EdOG0RL-93" value="" style="edgeStyle=none;endArrow=none;dashed=1" parent="1" target="xaEXVbpPQqgU4EdOG0RL-96" edge="1">
          <mxGeometry x="414.5711805555559" y="205" width="100" height="100" as="geometry">
            <mxPoint x="466.3730407523508" y="110" as="sourcePoint"/>
            <mxPoint x="464" y="580" as="targetPoint"/>
          </mxGeometry>
        </mxCell>
        <mxCell id="xaEXVbpPQqgU4EdOG0RL-95" value="" style="edgeStyle=none;endArrow=none;dashed=1" parent="1" source="xaEXVbpPQqgU4EdOG0RL-124" edge="1">
          <mxGeometry x="414.5711805555559" y="205" width="100" height="100" as="geometry">
            <mxPoint x="466.373040752351" y="110" as="sourcePoint"/>
            <mxPoint x="464" y="580" as="targetPoint"/>
          </mxGeometry>
        </mxCell>
        <mxCell id="xaEXVbpPQqgU4EdOG0RL-119" style="edgeStyle=elbowEdgeStyle;orthogonalLoop=1;jettySize=auto;elbow=vertical;html=1;exitX=1;exitY=0.75;exitDx=0;exitDy=0;entryX=0;entryY=0.25;entryDx=0;entryDy=0;dashed=1;startFill=0;endArrow=block;endFill=1;fontSize=11;" parent="1" source="xaEXVbpPQqgU4EdOG0RL-96" target="xaEXVbpPQqgU4EdOG0RL-105" edge="1">
          <mxGeometry relative="1" as="geometry"/>
        </mxCell>
        <mxCell id="xaEXVbpPQqgU4EdOG0RL-96" value="" style="fillColor=#CC4125;strokeColor=#660000" parent="1" vertex="1">
          <mxGeometry x="460" y="150" width="10" height="280" as="geometry"/>
        </mxCell>
        <mxCell id="xaEXVbpPQqgU4EdOG0RL-97" value="AW" style="shape=umlActor;verticalLabelPosition=bottom;labelBackgroundColor=none;verticalAlign=top;html=1;outlineConnect=0;fillColor=#FFD966;fontStyle=1" parent="1" vertex="1">
          <mxGeometry x="450" y="60" width="30" height="60" as="geometry"/>
        </mxCell>
        <mxCell id="xaEXVbpPQqgU4EdOG0RL-126" style="edgeStyle=elbowEdgeStyle;orthogonalLoop=1;jettySize=auto;elbow=vertical;html=1;dashed=1;startFill=0;endArrow=block;endFill=1;fontSize=11;" parent="1" source="xaEXVbpPQqgU4EdOG0RL-124" target="42" edge="1">
          <mxGeometry relative="1" as="geometry">
            <Array as="points">
              <mxPoint x="400" y="500"/>
            </Array>
          </mxGeometry>
        </mxCell>
        <mxCell id="xaEXVbpPQqgU4EdOG0RL-127" value="" style="text;html=1;resizable=0;points=[];align=center;verticalAlign=middle;fontSize=10;rounded=1;fontStyle=1;fillColor=#FFD966;" parent="xaEXVbpPQqgU4EdOG0RL-126" vertex="1" connectable="0">
          <mxGeometry y="144" relative="1" as="geometry">
            <mxPoint x="140" y="-128.5" as="offset"/>
          </mxGeometry>
        </mxCell>
        <mxCell id="xaEXVbpPQqgU4EdOG0RL-129" style="edgeStyle=elbowEdgeStyle;orthogonalLoop=1;jettySize=auto;elbow=vertical;html=1;dashed=1;startFill=0;endArrow=block;endFill=1;entryX=-0.25;entryY=0.208;entryDx=0;entryDy=0;entryPerimeter=0;" parent="1" source="xaEXVbpPQqgU4EdOG0RL-124" target="xaEXVbpPQqgU4EdOG0RL-132" edge="1">
          <mxGeometry relative="1" as="geometry">
            <mxPoint x="1080" y="516.9999999999998" as="targetPoint"/>
            <Array as="points">
              <mxPoint x="830" y="530"/>
              <mxPoint x="610" y="540"/>
              <mxPoint x="640" y="530"/>
            </Array>
          </mxGeometry>
        </mxCell>
        <mxCell id="xaEXVbpPQqgU4EdOG0RL-124" value="" style="fillColor=#CC4125;strokeColor=#660000" parent="1" vertex="1">
          <mxGeometry x="460" y="474" width="10" height="86" as="geometry"/>
        </mxCell>
        <mxCell id="xaEXVbpPQqgU4EdOG0RL-125" value="" style="edgeStyle=none;endArrow=none;dashed=1" parent="1" source="xaEXVbpPQqgU4EdOG0RL-96" target="xaEXVbpPQqgU4EdOG0RL-124" edge="1">
          <mxGeometry x="414.5711805555559" y="205" width="100" height="100" as="geometry">
            <mxPoint x="464.51724137931024" y="430" as="sourcePoint"/>
            <mxPoint x="464" y="580" as="targetPoint"/>
          </mxGeometry>
        </mxCell>
        <mxCell id="xaEXVbpPQqgU4EdOG0RL-133" style="edgeStyle=elbowEdgeStyle;orthogonalLoop=1;jettySize=auto;elbow=vertical;html=1;dashed=1;startFill=0;endArrow=block;endFill=1;" parent="1" source="xaEXVbpPQqgU4EdOG0RL-132" edge="1">
          <mxGeometry relative="1" as="geometry">
            <mxPoint x="40" y="580" as="targetPoint"/>
            <Array as="points">
              <mxPoint x="610" y="580"/>
              <mxPoint x="110" y="570"/>
            </Array>
          </mxGeometry>
        </mxCell>
        <mxCell id="xaEXVbpPQqgU4EdOG0RL-168" style="edgeStyle=elbowEdgeStyle;orthogonalLoop=1;jettySize=auto;elbow=vertical;html=1;entryX=0.967;entryY=0.635;entryDx=0;entryDy=0;entryPerimeter=0;dashed=1;startFill=0;endArrow=block;endFill=1;" parent="1" source="xaEXVbpPQqgU4EdOG0RL-132" target="xaEXVbpPQqgU4EdOG0RL-167" edge="1">
          <mxGeometry relative="1" as="geometry"/>
        </mxCell>
        <mxCell id="xaEXVbpPQqgU4EdOG0RL-132" value="" style="fillColor=#CC4125;strokeColor=#660000" parent="1" vertex="1">
          <mxGeometry x="1078" y="490" width="10" height="260" as="geometry"/>
        </mxCell>
        <mxCell id="jYBo3Zhqs0pMkhHqMW5u-85" value="" style="edgeStyle=none;endArrow=none;dashed=1" parent="1" target="jYBo3Zhqs0pMkhHqMW5u-84" edge="1">
          <mxGeometry x="-175.42881944444412" y="205" width="100" height="100" as="geometry">
            <mxPoint x="-123.62695924764921" y="110" as="sourcePoint"/>
            <mxPoint x="-126" y="580" as="targetPoint"/>
          </mxGeometry>
        </mxCell>
        <mxCell id="jYBo3Zhqs0pMkhHqMW5u-78" value="" style="edgeStyle=none;endArrow=none;dashed=1" parent="1" source="jYBo3Zhqs0pMkhHqMW5u-84" edge="1">
          <mxGeometry x="-175.42881944444412" y="205" width="100" height="100" as="geometry">
            <mxPoint x="-123.62695924764898" y="110" as="sourcePoint"/>
            <mxPoint x="-126" y="580" as="targetPoint"/>
          </mxGeometry>
        </mxCell>
        <mxCell id="jYBo3Zhqs0pMkhHqMW5u-84" value="" style="fillColor=#CC4125;strokeColor=#660000" parent="1" vertex="1">
          <mxGeometry x="-130" y="150" width="10" height="280" as="geometry"/>
        </mxCell>
        <mxCell id="jYBo3Zhqs0pMkhHqMW5u-72" value="PA" style="shape=umlActor;verticalLabelPosition=bottom;labelBackgroundColor=none;verticalAlign=top;html=1;outlineConnect=0;fillColor=#FFD966;fontStyle=1" parent="1" vertex="1">
          <mxGeometry x="-140" y="60" width="30" height="60" as="geometry"/>
        </mxCell>
        <mxCell id="xaEXVbpPQqgU4EdOG0RL-163" style="edgeStyle=elbowEdgeStyle;orthogonalLoop=1;jettySize=auto;elbow=vertical;html=1;dashed=1;startFill=0;endArrow=block;endFill=1;" parent="1" source="xaEXVbpPQqgU4EdOG0RL-137" edge="1">
          <mxGeometry relative="1" as="geometry">
            <mxPoint x="30" y="660" as="targetPoint"/>
            <Array as="points">
              <mxPoint x="10" y="660"/>
            </Array>
          </mxGeometry>
        </mxCell>
        <mxCell id="xaEXVbpPQqgU4EdOG0RL-137" value="" style="fillColor=#CC4125;strokeColor=#660000" parent="1" vertex="1">
          <mxGeometry x="-130" y="460" width="10" height="220" as="geometry"/>
        </mxCell>
        <mxCell id="xaEXVbpPQqgU4EdOG0RL-138" value="Chat with PA" style="rounded=1;fontStyle=1;fillColor=#FFD966;strokeColor=none;whiteSpace=wrap;fontSize=10;" parent="1" vertex="1">
          <mxGeometry x="362.5" y="509" width="87.5" height="30" as="geometry"/>
        </mxCell>
        <mxCell id="xaEXVbpPQqgU4EdOG0RL-140" value="Record a ticket" style="rounded=1;fontStyle=1;fillColor=#FFD966;strokeColor=none;whiteSpace=wrap;fontSize=10;" parent="1" vertex="1">
          <mxGeometry x="344.5" y="444" width="87.5" height="30" as="geometry"/>
        </mxCell>
        <mxCell id="xaEXVbpPQqgU4EdOG0RL-141" value="Submit the form" style="rounded=1;fontStyle=1;fillColor=#FFD966;strokeColor=none;whiteSpace=wrap;fontSize=10;" parent="1" vertex="1">
          <mxGeometry x="60" y="420" width="80" height="30" as="geometry"/>
        </mxCell>
        <mxCell id="xaEXVbpPQqgU4EdOG0RL-143" value="Send categories" style="rounded=1;fontStyle=1;fillColor=#FFD966;strokeColor=none;whiteSpace=wrap;fontSize=10;" parent="1" vertex="1">
          <mxGeometry x="220" y="270" width="80" height="30" as="geometry"/>
        </mxCell>
        <mxCell id="xaEXVbpPQqgU4EdOG0RL-144" value="Send a list of available staff" style="rounded=1;fontStyle=1;fillColor=#FFD966;strokeColor=none;whiteSpace=wrap;fontSize=10;" parent="1" vertex="1">
          <mxGeometry x="606" y="277" width="135" height="30" as="geometry"/>
        </mxCell>
        <mxCell id="xaEXVbpPQqgU4EdOG0RL-145" value="Request available staff list" style="rounded=1;fontStyle=1;fillColor=#FFD966;strokeColor=none;whiteSpace=wrap;fontSize=10;" parent="1" vertex="1">
          <mxGeometry x="900" y="240" width="135" height="30" as="geometry"/>
        </mxCell>
        <mxCell id="xaEXVbpPQqgU4EdOG0RL-147" value="Pull tickets" style="rounded=1;fontStyle=1;fillColor=#FFD966;strokeColor=none;whiteSpace=wrap;fontSize=10;" parent="1" vertex="1">
          <mxGeometry x="1000" y="189" width="70" height="30" as="geometry"/>
        </mxCell>
        <mxCell id="xaEXVbpPQqgU4EdOG0RL-148" value="Close ticket" style="rounded=1;fontStyle=1;fillColor=#FFD966;strokeColor=none;whiteSpace=wrap;fontSize=10;" parent="1" vertex="1">
          <mxGeometry x="473" y="540" width="87.5" height="30" as="geometry"/>
        </mxCell>
        <mxCell id="xaEXVbpPQqgU4EdOG0RL-150" value="Open a ticket" style="rounded=1;fontStyle=1;fillColor=#FFD966;strokeColor=none;whiteSpace=wrap;fontSize=10;" parent="1" vertex="1">
          <mxGeometry x="480" y="366" width="87.5" height="30" as="geometry"/>
        </mxCell>
        <mxCell id="xaEXVbpPQqgU4EdOG0RL-151" value="request feedback categories" style="rounded=1;fontStyle=1;fillColor=#FFD966;strokeColor=none;whiteSpace=wrap;fontSize=10;" parent="1" vertex="1">
          <mxGeometry x="50" y="210" width="140" height="30" as="geometry"/>
        </mxCell>
        <mxCell id="xaEXVbpPQqgU4EdOG0RL-152" value="Triggers feedback loop" style="rounded=1;fontStyle=1;fillColor=#FFD966;strokeColor=none;whiteSpace=wrap;fontSize=10;" parent="1" vertex="1">
          <mxGeometry x="-110" y="225" width="120" height="30" as="geometry"/>
        </mxCell>
        <mxCell id="xaEXVbpPQqgU4EdOG0RL-155" value="Selects a category" style="rounded=1;fontStyle=1;fillColor=#FFD966;strokeColor=none;whiteSpace=wrap;fontSize=10;" parent="1" vertex="1">
          <mxGeometry x="-117.5" y="305" width="100" height="30" as="geometry"/>
        </mxCell>
        <mxCell id="xaEXVbpPQqgU4EdOG0RL-156" value="Show  &quot;fill in form&quot;" style="rounded=1;fontStyle=1;fillColor=#FFD966;strokeColor=none;whiteSpace=wrap;fontSize=10;" parent="1" vertex="1">
          <mxGeometry x="-75" y="355" width="100" height="30" as="geometry"/>
        </mxCell>
        <mxCell id="xaEXVbpPQqgU4EdOG0RL-157" value="Fill the form" style="rounded=1;fontStyle=1;fillColor=#FFD966;strokeColor=none;whiteSpace=wrap;fontSize=10;" parent="1" vertex="1">
          <mxGeometry x="-110" y="405" width="70" height="30" as="geometry"/>
        </mxCell>
        <mxCell id="xaEXVbpPQqgU4EdOG0RL-158" value="Notify PA" style="rounded=1;fontStyle=1;fillColor=#FFD966;strokeColor=none;whiteSpace=wrap;fontSize=10;" parent="1" vertex="1">
          <mxGeometry x="-43" y="539" width="70" height="30" as="geometry"/>
        </mxCell>
        <mxCell id="xaEXVbpPQqgU4EdOG0RL-159" value="Assign tickets to staff" style="rounded=1;fontStyle=1;fillColor=#FFD966;strokeColor=none;whiteSpace=wrap;fontSize=10;" parent="1" vertex="1">
          <mxGeometry x="958" y="292" width="120" height="30" as="geometry"/>
        </mxCell>
        <mxCell id="xaEXVbpPQqgU4EdOG0RL-160" value="Ask for satisfaction/rating" style="rounded=1;fontStyle=1;fillColor=#FFD966;strokeColor=none;whiteSpace=wrap;fontSize=10;" parent="1" vertex="1">
          <mxGeometry x="932.5" y="580" width="135" height="30" as="geometry"/>
        </mxCell>
        <mxCell id="xaEXVbpPQqgU4EdOG0RL-162" value="Display rating form" style="rounded=1;fontStyle=1;fillColor=#FFD966;strokeColor=none;whiteSpace=wrap;fontSize=10;" parent="1" vertex="1">
          <mxGeometry x="-70" y="610" width="97" height="30" as="geometry"/>
        </mxCell>
        <mxCell id="xaEXVbpPQqgU4EdOG0RL-164" value="Fill rating" style="rounded=1;fontStyle=1;fillColor=#FFD966;strokeColor=none;whiteSpace=wrap;fontSize=10;" parent="1" vertex="1">
          <mxGeometry x="-117.5" y="665" width="97" height="30" as="geometry"/>
        </mxCell>
        <mxCell id="xaEXVbpPQqgU4EdOG0RL-166" value="Submit rating" style="rounded=1;fontStyle=1;fillColor=#FFD966;strokeColor=none;whiteSpace=wrap;fontSize=10;" parent="1" vertex="1">
          <mxGeometry x="50" y="690" width="97" height="30" as="geometry"/>
        </mxCell>
        <mxCell id="xaEXVbpPQqgU4EdOG0RL-167" value="" style="fillColor=#CC4125;strokeColor=#660000" parent="1" vertex="1">
          <mxGeometry x="880" y="660" width="10" height="120" as="geometry"/>
        </mxCell>
        <mxCell id="xaEXVbpPQqgU4EdOG0RL-169" value="Record rating &amp; close ticket" style="rounded=1;fontStyle=1;fillColor=#FFD966;strokeColor=none;whiteSpace=wrap;fontSize=10;" parent="1" vertex="1">
          <mxGeometry x="938.5" y="705" width="135" height="30" as="geometry"/>
        </mxCell>
        <mxCell id="6s1CrjZ-BPWiknnFi2Cr-71" value="&lt;b&gt;PA App&lt;/b&gt;" style="verticalLabelPosition=bottom;html=1;verticalAlign=top;align=center;strokeColor=none;fillColor=#00BEF2;shape=mxgraph.azure.mobile;pointerEvents=1;rounded=0;shadow=0;glass=0;dashed=1;dashPattern=1 1;comic=1;labelBackgroundColor=none;fontSize=18;fontColor=#000000;" vertex="1" parent="1">
          <mxGeometry x="7.5" y="34" width="55" height="92" as="geometry"/>
        </mxCell>
        <mxCell id="6s1CrjZ-BPWiknnFi2Cr-72" value="Route tickets" style="rounded=1;fontStyle=1;fillColor=#FFD966;strokeColor=none;whiteSpace=wrap;fontSize=10;" vertex="1" parent="1">
          <mxGeometry x="1100" y="246.5" width="87.5" height="30" as="geometry"/>
        </mxCell>
      </root>
    </mxGraphModel>
  </diagram>
</mxfile>
